<svg xmlns="http://www.w3.org/2000/svg" viewBox="0 0 122.61 103.47"><defs><style>.cls-1{fill:#29abe2;}.cls-2{fill:#f7931e;}</style></defs><title>1Asset 4</title><g id="Layer_2" data-name="Layer 2"><g id="Layer_1-2" data-name="Layer 1"><path class="cls-1" d="M122.61,103.25H106.84c-.22-1-.55-2.17-.68-3.31-1.47-12.78-12.65-23.7-25.37-24.58-2-.14-2.86-.65-2.8-2.79.13-4.36,0-8.74,0-13.48C86,58.47,92.7,56,98.09,50.41c4.5-4.63,7.47-10,8-16.55.21-2.45,1.14-3.48,3.73-3.31a80.07,80.07,0,0,0,9.55,0c2.43-.11,3.38.61,3.16,3.2a44.59,44.59,0,0,1-16.2,31.15c-.68.58-1.36,1.16-2,1.75-.06,0-.06.17-.19.53C115.68,76.25,122.32,88,122.61,103.25Z"/><path class="cls-2" d="M81.09,87.67c-4.82-.61-9.7-.61-14.68-.88a7.23,7.23,0,0,1-.4-1.65c0-12,0-23.93,0-35.89,0-1.93.83-2.6,2.73-2.56q5.37.12,10.76-.06c7.3-.23,15.07-7.49,14.62-15.84-1.13-.07-2.29-.22-3.46-.22-6.87,0-13.75,0-20.63,0-4,0-4,0-4-3.92,0-7,0-13.93,0-21.78C63.35,6.7,61.41,8,59.5,9.41c-3.06,2.23-7.24,3.88-8.83,6.9s-.83,7.51-.81,11.35c0,1.54-.42,2.33-1.32,2.69a4.26,4.26,0,0,0-3.62-2l-14.31,0,0,13.31A5.29,5.29,0,0,0,36,47l12.54,0c1,.46,1.4,1.5,1.38,3.37-.15,12-.08,23.92-.06,35.88,0,10.36,6.92,17.24,17.21,17.25q9.57,0,19.14,0h8C94.41,95.85,88.48,88.6,81.09,87.67Z"/><path class="cls-2" d="M23.24,22.12,13,22.09a4.29,4.29,0,0,0-4.31,4.29l0,14.3,13.31,0a5.28,5.28,0,0,0,5.3-5.27l0-9.22h-4Z"/><path class="cls-2" d="M18.61,4.29A4.3,4.3,0,0,0,14.3,0L0,0l0,13.3a5.29,5.29,0,0,0,5.31,5.28l13.31,0Z"/><path class="cls-2" d="M41.84,21l0-13.31-14.3,0a4.3,4.3,0,0,0-4.31,4.29l0,10.21h4v4.09l9.3,0A5.3,5.3,0,0,0,41.84,21Z"/></g></g></svg>